<svg width="256" height="256" viewBox="0 0 256 256" fill="none" xmlns="http://www.w3.org/2000/svg">
  <defs>
    <radialGradient id="g1" cx="0" cy="0" r="1" gradientUnits="userSpaceOnUse" gradientTransform="translate(118 108) rotate(60) scale(130 130)">
      <stop stop-color="#FFE2A2"/>
      <stop offset="1" stop-color="#9A5F23"/>
    </radialGradient>
    <linearGradient id="g2" x1="62" y1="156" x2="208" y2="122" gradientUnits="userSpaceOnUse">
      <stop stop-color="#5D2F14"/>
      <stop offset="1" stop-color="#C98238"/>
    </linearGradient>
  </defs>
  <circle cx="82" cy="177" r="43" fill="#5F3116"/>
  <circle cx="82" cy="177" r="28" fill="#E0A34F"/>
  <circle cx="174" cy="177" r="29" fill="#6A3617"/>
  <circle cx="174" cy="177" r="17" fill="#D7923E"/>
  <path d="M55 134L191 111L209 137L72 160L55 134Z" fill="url(#g2)" stroke="#F4C06A" stroke-width="4"/>
  <path d="M96 66C105 44 135 34 155 44C171 53 177 75 168 92L145 134L89 145L96 66Z" fill="url(#g1)" stroke="#F0BC66" stroke-width="4"/>
  <path d="M168 95L223 80" stroke="#DCA55A" stroke-width="7" stroke-linecap="round"/>
  <path d="M218 76L238 69" stroke="#E7BF78" stroke-width="5" stroke-linecap="round"/>
  <path d="M114 91C120 79 137 74 149 80" stroke="#7D491F" stroke-width="5" stroke-linecap="round"/>
  <circle cx="121" cy="98" r="4" fill="#6F3D19"/>
</svg>
